
         â–ˆâ–ˆ                                                                    
        â–â–ˆâ–Œ                                                                    
      â–  â–ˆâ–ˆ                                                                     
      â–„â–ˆâ–ˆ â–ˆâ–ˆâ–ˆâ–ˆâ–ˆâ–ˆâ–ˆâ–ˆâ–ˆâ–ˆâ–ˆâ–ˆâ–ˆâ–ˆâ–ˆ â–’  â–ˆâ–ˆâ–ˆâ–ˆâ–ˆâ–ˆâ–ˆâ–ˆâ–ˆâ–ˆâ–ˆâ–ˆâ–ˆâ–ˆâ–ˆ  â–’ â–ˆâ–ˆâ–ˆâ–ˆâ–ˆâ–ˆâ–ˆâ–ˆ  â–ˆâ–ˆâ–ˆâ–ˆâ–ˆâ–ˆâ–ˆâ–‘   ,           
â– â–„   â–ˆâ–€â–ˆ     â–ˆâ–ˆâ–ˆâ–ˆâ–ˆ   â–ˆâ–ˆâ–ˆâ–ˆâ–ˆ     â–ˆâ–ˆâ–ˆâ–ˆâ–ˆ   â–ˆâ–ˆâ–ˆâ–ˆâ–ˆâ–ˆ    â–ˆâ–ˆâ–ˆâ–ˆâ–ˆâ–ˆâ–ˆ  â–ˆâ–ˆâ–ˆâ–ˆâ–ˆâ–ˆâ–€     â–„         
 â–€â–ˆâ–„â–ˆâ–ˆâ–“ â–     â–ˆâ–ˆâ–ˆâ–ˆâ–ˆâ–‘   â–ˆâ–ˆâ–ˆâ–ˆ â–‘   â–ˆâ–ˆâ–ˆâ–ˆâ–ˆ â–‘  â–ˆâ–ˆâ–ˆâ–ˆâ–ˆ  â–‘  â–ˆâ–ˆâ–ˆâ–ˆâ–ˆ  â–‘ â–ˆâ–ˆâ–ˆâ–ˆâ–ˆ      â–„       
  â–ˆâ–ˆâ–ˆâ–“      â–‘â–ˆâ–ˆâ–ˆâ–ˆâ–ˆâ–ˆâ–ˆâ–ˆâ–ˆâ–ˆâ–ˆ â–‘     â–ˆâ–ˆâ–ˆâ–ˆâ–ˆ  â–‘ â–ˆâ–ˆâ–ˆâ–ˆâ–ˆâ–ˆ  â–‘ â–ˆâ–ˆâ–ˆâ–ˆâ–ˆ    â–ˆâ–ˆâ–ˆâ–ˆÂ·â–‘      â–ˆâ–„â–„   
 â–“â–ˆâ–ˆâ–€       â–‘â–ˆâ–ˆâ–ˆâ–ˆâ–ˆ   â–’â–ˆâ–ˆâ–ˆâ–ˆ    â–’â–ˆâ–ˆâ–ˆâ–ˆâ–ˆ    â–ˆâ–ˆâ–ˆâ–ˆâ–ˆâ–ˆ    â–ˆâ–ˆâ–ˆâ–ˆâ–ˆ    â–ˆâ–ˆâ–ˆâ–ˆ       â–„â–ˆ    
â–â–ˆâ–ˆâ–Œ   â–‘  â–‘â–‘â–’â–ˆâ–ˆâ–ˆâ–ˆâ–ˆ   â–ˆâ–ˆâ–ˆâ–ˆâ–ˆ     â–ˆâ–ˆâ–ˆâ–ˆâ–ˆ   â–ˆâ–ˆâ–ˆâ–ˆâ–ˆâ–ˆâ–ˆ     â–ˆâ–ˆâ–ˆâ–ˆâ–ˆ  â–ˆâ–ˆâ–ˆâ–ˆÂ·â–‘      â–ˆâ–ˆ     
â–ˆâ–ˆâ–ˆ   â–‘     â–ˆâ–ˆâ–ˆâ–ˆâ–ˆâ–ˆâ–ˆâ–ˆâ–ˆâ–ˆâ–ˆâ–ˆâ–ˆ â–‘   â–ˆâ–ˆâ–ˆâ–ˆâ–ˆâ–ˆâ–ˆâ–ˆâ–ˆâ–ˆâ–ˆâ–ˆâ–ˆâ–ˆâ–ˆ  â–‘  â–ˆâ–ˆâ–ˆâ–ˆâ–ˆâ–ˆâ–ˆâ–ˆâ–ˆâ–ˆâ–ˆâ–ˆâ–ˆ      â–„â–â–ˆâ–Œ    
â–ˆâ–ˆâ–Œ  â–‘â–‘    â–ˆâ–ˆâ–ˆâ–ˆâ–ˆâ–ˆâ–ˆâ–ˆâ–ˆâ–ˆâ–ˆâ–ˆâ–ˆ â–’   â–ˆâ–ˆâ–ˆâ–ˆâ–ˆâ–ˆâ–ˆâ–ˆâ–ˆâ–ˆâ–ˆâ–ˆâ–ˆâ–ˆâ–ˆâ–‘ â–’   â–ˆâ–ˆâ–ˆâ–ˆâ–ˆâ–ˆâ–ˆâ–ˆâ–ˆâ–ˆâ–ˆâ–ˆâ–ˆâ–ˆ  â–‘   â–ˆâ–ˆâ–Œ    
â–ˆâ–ˆâ–ˆ  â–‘â–‘                                                             â–„ â–ˆâ–ˆâ–ˆ     
â–â–ˆâ–ˆâ–Œ  â–‘â–‘         BEST      *       DESI        *    UPLOADER         â–ˆâ–ˆâ–ˆâ–ˆâ–„    
 â–“â–ˆâ–ˆâ–„  â–’â–‘                                                            â–ˆâ–ˆâ–ˆâ–ˆ â–€â–    
  â–€â–ˆâ–ˆâ–ˆâ–„  â–‘                                                  â–ˆ â–€â–„â–„ â–„â–„â–ˆâ–ˆâ–ˆâ–ˆ       
    â–€â–ˆâ–ˆâ–ˆâ–ˆâ–„â–ˆâ–„â–„â–ˆâ–ˆâ–„â–„â–„â–„ â–€ â–€â–€ â–„â–„â–„â–„ â–€ â–„â–‘â–„  â–€â–€ â–„â–„â–ˆâ–ˆâ–€ â–„â–ˆâ–ˆâ–â–ˆâ–€ â–„ â–€ â–„â–„ â–€â–ˆ â–€â–ˆâ–“â–“â–ˆâ–ˆâ–ˆâ–ˆ    
     â–„â–“â–€â–ˆâ–ˆâ–ˆâ–ˆâ–€â–ˆâ–€â–ˆâ–ˆâ–ˆâ–“â–“â–ˆâ–ˆâ–ˆâ–ˆâ–â–ˆâ–ˆâ–ˆâ–ˆâ–ˆâ–ˆâ–ˆâ–ˆâ–“â–ˆâ–ˆâ–ˆâ–ˆâ–ˆâ–ˆâ–ˆâ–ˆâ–ˆâ–€ â–€ â–„â–„â–„â–„â–„â–ˆâ–ˆâ–ˆâ–ˆâ–ˆâ–ˆâ–ˆâ–ˆâ–„ â–€ â–„â–ˆâ–ˆâ–ˆâ–ˆâ–ˆ
        â–€â–€â–“â–“â–ˆâ–“â–ˆâ–ˆâ–ˆâ–ˆâ–ˆâ–ˆâ–ˆâ–ˆâ–ˆâ–ˆâ–„â–ˆâ–ˆâ–ˆâ–ˆâ–“â–“â–€â–ˆâ–ˆâ–ˆâ–ˆâ–ˆâ–€â–ˆâ–ˆâ–ˆâ–ˆâ–ˆâ–ˆâ–ˆâ–ˆâ–ˆâ–ˆâ–ˆâ–ˆâ–ˆâ–ˆâ–ˆâ–ˆâ–ˆâ–“â–“â–ˆâ–ˆâ–ˆâ–ˆâ–ˆâ–ˆâ–ˆâ–ˆâ–ˆâ–ˆâ–ˆâ–ˆ

*******************************************************************************
*             Huppa Huiyya [2010] [MARATHI]  1CD DVDRip XviD [BDU]            *
*******************************************************************************

-------------------------------------------------------------------------------
                             *General Information*
-------------------------------------------------------------------------------
Movie Name                       : Huppa Huiyya [2010]
Cast                             : Siddharth Jadhav, Girija Oak,
                                   Mohan Joshi, Usha Nadkarni
                                   and Ganesh Yadav.
Language                         : Marathi
Genre                            : Comedy
Year                             : 2010

General
Movie Name                       : Huppa Huiyya [2010]
Format                           : AVI
Format/Info                      : Audio Video Interleave
File size                        : 664 MiB
Duration                         : 1h 48mn
Overall bit rate                 : 859 Kbps
Writing application              : VirtualDubMod 1.5.10.2 (build 2542/release)
Writing library                  : VirtualDubMod build 2542/release

Video
ID                               : 0
Format                           : MPEG-4 Visual
Format profile                   : Advanced Simple@L5
Format settings, BVOP            : Yes
Format settings, QPel            : No
Format settings, GMC             : No warppoints
Format settings, Matrix          : Default (H.263)
Muxing mode                      : Packed bitstream
Codec ID                         : XVID
Codec ID/Hint                    : XviD
Duration                         : 1h 48mn
Bit rate                         : 783 Kbps
Width                            : 640 pixels
Height                           : 336 pixels
Display aspect ratio             : 1.905
Frame rate                       : 29.970 fps
Resolution                       : 8 bits
Colorimetry                      : 4:2:0
Scan type                        : Progressive
Bits/(Pixel*Frame)               : 0.121
Stream size                      : 605 MiB (91%)
Writing library                  : XviD 1.2.1 (UTC 2008-12-04)

Audio
ID                               : 1
Format                           : MPEG Audio
Format version                   : Version 1
Format profile                   : Layer 3
Codec ID                         : 55
Codec ID/Hint                    : MP3
Duration                         : 1h 48mn
Bit rate mode                    : Constant
Bit rate                         : 64.0 Kbps
Channel(s)                       : 2 channels
Sampling rate                    : 44.1 KHz
Video delay                      : 4ms
Stream size                      : 49.5 MiB (7%)
Alignment                        : Split accross interleaves
Interleave, duration             : 33 ms (1.00 video frame)
Interleave, preload duration     : 500 ms



-------------------------------------------------------------------------------
                              *Post Information*
-------------------------------------------------------------------------------
Posted by............: Best Desi Uploader
Ripper...............: DjMaster

-------------------------------------------------------------------------------
                                *Release Notes*
-------------------------------------------------------------------------------
1. Torrent Uploaded By DjMaster [BDU]
2. Please DON'T Forget For Seed.
3. Thank You!

-------------------------------------------------------------------------------

